<?xml version="1.0" encoding="UTF-8" standalone="no"?><!DOCTYPE svg PUBLIC "-//W3C//DTD SVG 1.1//EN" "http://www.w3.org/Graphics/SVG/1.1/DTD/svg11.dtd"><svg width="100%" height="100%" viewBox="0 0 1426 215" version="1.1" xmlns="http://www.w3.org/2000/svg" xmlns:xlink="http://www.w3.org/1999/xlink" xml:space="preserve" style="fill-rule:evenodd;clip-rule:evenodd;stroke-linejoin:round;stroke-miterlimit:1.41421;"><g id="GoodTooth.-purple.-green"><g id="Tooth"><path id="Shape" d="M439.384,70.594c7.11,8.569 11.026,19.849 11.026,31.761c0,16.523 -5.706,40.541 -15.262,64.25c-4.259,10.566 -8.771,19.698 -13.048,26.409c-5.116,8.026 -9.492,11.928 -13.379,11.928c-1.718,-0.001 -4.857,-0.789 -6.602,-6.06c-1.675,-5.061 -3.166,-10.94 -4.744,-17.165c-2.389,-9.417 -4.855,-19.142 -8.099,-26.456c-3.274,-7.383 -6.758,-10.972 -10.65,-10.972l-0.553,0c-8.754,0 -14.192,20.663 -18.561,37.266c-1.651,6.274 -3.208,12.189 -4.938,17.342c-1.782,5.303 -4.956,6.094 -6.69,6.094c-3.907,0 -8.287,-3.843 -13.391,-11.749c-4.288,-6.643 -8.791,-15.685 -13.021,-26.149c-9.507,-23.52 -15.184,-47.72 -15.184,-64.738c0,-11.912 3.916,-23.192 11.026,-31.761c7.473,-9.007 17.759,-13.968 28.963,-13.968c8.821,0 18.25,5.617 25.135,9.717c2.507,1.493 5.925,3.53 6.936,3.662c1.016,-0.135 4.452,-2.176 6.965,-3.67c6.903,-4.099 16.349,-9.709 25.108,-9.709c11.204,0 21.489,4.961 28.963,13.968Z" style="fill:#4ad3c6;fill-opacity:0.647059;fill-rule:nonzero;"/><path id="Shape1" d="M346.096,70.594c7.11,8.569 11.026,19.849 11.026,31.761c0,16.523 -5.706,40.541 -15.262,64.25c-4.259,10.566 -8.771,19.698 -13.048,26.409c-5.116,8.026 -9.491,11.928 -13.379,11.928c-1.718,-0.001 -4.857,-0.789 -6.602,-6.06c-1.675,-5.061 -3.166,-10.94 -4.744,-17.165c-2.389,-9.417 -4.855,-19.142 -8.099,-26.456c-3.274,-7.383 -6.758,-10.972 -10.65,-10.972l-0.553,0c-8.754,0 -14.192,20.663 -18.561,37.266c-1.651,6.274 -3.208,12.189 -4.938,17.342c-1.781,5.303 -4.956,6.094 -6.69,6.094c-3.907,0 -8.287,-3.843 -13.391,-11.749c-4.288,-6.643 -8.791,-15.685 -13.021,-26.149c-9.507,-23.52 -15.184,-47.72 -15.184,-64.738c0,-11.912 3.916,-23.192 11.026,-31.761c7.473,-9.007 17.759,-13.968 28.963,-13.968c8.821,0 18.25,5.617 25.135,9.717c2.507,1.493 5.925,3.53 6.936,3.662c1.016,-0.135 4.452,-2.176 6.965,-3.67c6.903,-4.099 16.349,-9.709 25.108,-9.709c11.204,0 21.489,4.961 28.963,13.968Z" style="fill:#856ec6;fill-opacity:0.647059;fill-rule:nonzero;"/></g><g id="Tooth1"><text x="632.163px" y="202.493px" style="font-family:'GothamRounded-Medium', 'Gotham Rounded';font-weight:350;font-size:272.721px;fill:#fff;">T<tspan x="777.54px 954.07px 1130.6px 1244.82px " y="202.493px 202.493px 202.493px 202.493px ">ooth</tspan></text></g><g id="G"><text x="13.55px" y="202.493px" style="font-family:'GothamRounded-Medium', 'Gotham Rounded';font-weight:350;font-size:272.721px;fill:#fafafa;">G</text></g><g id="d"><text x="461.205px" y="202.493px" style="font-family:'GothamRounded-Medium', 'Gotham Rounded';font-weight:350;font-size:272.721px;fill:#fff;">d</text></g></g></svg>